<svg width="441" height="512" viewBox="0 0 441 512" fill="none" xmlns="http://www.w3.org/2000/svg">
<path d="M89 0C36 0 -7 43 -7 96V416C-7 469 36 512 89 512H377H409C426.7 512 441 497.7 441 480C441 462.3 426.7 448 409 448V384C426.7 384 441 369.7 441 352V32C441 14.3 426.7 0 409 0H377H89ZM89 384H345V448H89C71.3 448 57 433.7 57 416C57 398.3 71.3 384 89 384ZM121 144C121 135.2 128.2 128 137 128H329C337.8 128 345 135.2 345 144C345 152.8 337.8 160 329 160H137C128.2 160 121 152.8 121 144ZM137 192H329C337.8 192 345 199.2 345 208C345 216.8 337.8 224 329 224H137C128.2 224 121 216.8 121 208C121 199.2 128.2 192 137 192Z" fill="white"/>
</svg>
